<svg xmlns="http://www.w3.org/2000/svg" viewBox="0 0 768 512" role="img" aria-label="6-plex moderne illustré">
  <defs>
    <linearGradient id="sky" x1="0" y1="0" x2="0" y2="1">
      <stop offset="0" stop-color="#14314b"/>
      <stop offset="1" stop-color="#0b1320"/>
    </linearGradient>
    <linearGradient id="brick" x1="0" y1="0" x2="1" y2="1">
      <stop offset="0" stop-color="#d79772"/>
      <stop offset="1" stop-color="#a85749"/>
    </linearGradient>
    <linearGradient id="glass" x1="0" y1="0" x2="0" y2="1">
      <stop offset="0" stop-color="#bde8ff"/>
      <stop offset="1" stop-color="#4d8fb8"/>
    </linearGradient>
    <linearGradient id="grass" x1="0" y1="0" x2="0" y2="1">
      <stop offset="0" stop-color="#4f9b68"/>
      <stop offset="1" stop-color="#28543d"/>
    </linearGradient>
    <filter id="shadow" x="-20%" y="-20%" width="140%" height="160%">
      <feDropShadow dx="0" dy="18" stdDeviation="16" flood-color="#02060b" flood-opacity=".5"/>
    </filter>
  </defs>
  <rect width="768" height="512" fill="url(#sky)"/>
  <circle cx="642" cy="84" r="44" fill="#ffe7a8" opacity=".9"/>
  <path d="M0 384 C150 348 262 372 389 356 C512 341 620 366 768 334 V512 H0Z" fill="url(#grass)"/>
  <g opacity=".25" fill="#9ad1df">
    <rect x="28" y="112" width="92" height="218" rx="12"/><rect x="656" y="144" width="78" height="180" rx="12"/>
  </g>
  <g filter="url(#shadow)" transform="translate(92 78)">
    <path d="M60 74 L294 10 L528 74 V98 H60Z" fill="#31465c"/>
    <path d="M78 92 H510 V342 H78Z" fill="url(#brick)"/>
    <path d="M78 210 H510" stroke="#f2c6a6" stroke-opacity=".45" stroke-width="8"/>
    <path d="M78 286 H510" stroke="#77433e" stroke-opacity=".5" stroke-width="5"/>
    <g fill="url(#glass)" stroke="#eff9ff" stroke-width="6">
      <rect x="106" y="122" width="86" height="58" rx="8"/>
      <rect x="250" y="122" width="86" height="58" rx="8"/>
      <rect x="394" y="122" width="86" height="58" rx="8"/>
      <rect x="106" y="228" width="86" height="58" rx="8"/>
      <rect x="394" y="228" width="86" height="58" rx="8"/>
    </g>
    <g stroke="#25506a" stroke-width="4" opacity=".9">
      <path d="M149 122v58M106 151h86M293 122v58M250 151h86M437 122v58M394 151h86M149 228v58M106 257h86M437 228v58M394 257h86"/>
    </g>
    <rect x="246" y="212" width="94" height="130" rx="12" fill="#263745" stroke="#f4d1a8" stroke-width="7"/>
    <rect x="267" y="232" width="52" height="60" rx="6" fill="url(#glass)"/>
    <circle cx="319" cy="314" r="5" fill="#ffc857"/>
    <path d="M218 342 H368 L394 370 H194Z" fill="#c9d1d8"/>
    <g fill="#2a5c41">
      <circle cx="98" cy="326" r="30"/><circle cx="488" cy="326" r="30"/>
    </g>
    <g fill="#72b783"><circle cx="92" cy="314" r="20"/><circle cx="494" cy="314" r="20"/></g>
  </g>
  <g transform="translate(546 382)">
    <rect width="144" height="48" rx="24" fill="#0d1722" fill-opacity=".78" stroke="#79e2ff" stroke-opacity=".28"/>
    <text x="72" y="31" text-anchor="middle" font-family="system-ui, sans-serif" font-size="18" font-weight="800" fill="#e9fbff">6 LOGEMENTS</text>
  </g>
</svg>
