<svg xmlns="http://www.w3.org/2000/svg" viewBox="0 0 768 512" role="img" aria-label="Tour à condos moderne illustrée">
  <defs>
    <linearGradient id="sky" x1="0" y1="0" x2="0" y2="1">
      <stop offset="0" stop-color="#182c46"/>
      <stop offset="1" stop-color="#09111e"/>
    </linearGradient>
    <linearGradient id="tower" x1="0" y1="0" x2="1" y2="1">
      <stop offset="0" stop-color="#6f87a3"/>
      <stop offset=".55" stop-color="#40566f"/>
      <stop offset="1" stop-color="#26384c"/>
    </linearGradient>
    <linearGradient id="glass" x1="0" y1="0" x2="0" y2="1">
      <stop offset="0" stop-color="#bcecff"/>
      <stop offset="1" stop-color="#3b7ea6"/>
    </linearGradient>
    <linearGradient id="lobby" x1="0" y1="0" x2="1" y2="1">
      <stop offset="0" stop-color="#30475d"/>
      <stop offset="1" stop-color="#172537"/>
    </linearGradient>
    <filter id="shadow" x="-30%" y="-20%" width="160%" height="170%">
      <feDropShadow dx="0" dy="22" stdDeviation="18" flood-color="#02060c" flood-opacity=".58"/>
    </filter>
  </defs>
  <rect width="768" height="512" fill="url(#sky)"/>
  <circle cx="624" cy="82" r="50" fill="#dff8ff" opacity=".72"/>
  <path d="M0 420 C170 390 330 414 498 384 C610 364 694 377 768 354 V512 H0Z" fill="#183b31"/>
  <g opacity=".18" fill="#9cd7e9"><rect x="24" y="190" width="96" height="210" rx="10"/><rect x="650" y="220" width="86" height="172" rx="10"/></g>
  <g filter="url(#shadow)" transform="translate(170 38)">
    <path d="M92 60 L212 12 L332 60 V390 H92Z" fill="url(#tower)" stroke="#9bb1c7" stroke-opacity=".25" stroke-width="6"/>
    <path d="M212 12 V390" stroke="#a8c8df" stroke-opacity=".18" stroke-width="7"/>
    <g fill="url(#glass)" stroke="#d8f3ff" stroke-opacity=".55" stroke-width="3">
      <rect x="116" y="86" width="48" height="30" rx="5"/><rect x="188" y="86" width="48" height="30" rx="5"/><rect x="260" y="86" width="48" height="30" rx="5"/>
      <rect x="116" y="132" width="48" height="30" rx="5"/><rect x="188" y="132" width="48" height="30" rx="5"/><rect x="260" y="132" width="48" height="30" rx="5"/>
      <rect x="116" y="178" width="48" height="30" rx="5"/><rect x="188" y="178" width="48" height="30" rx="5"/><rect x="260" y="178" width="48" height="30" rx="5"/>
      <rect x="116" y="224" width="48" height="30" rx="5"/><rect x="188" y="224" width="48" height="30" rx="5"/><rect x="260" y="224" width="48" height="30" rx="5"/>
      <rect x="116" y="270" width="48" height="30" rx="5"/><rect x="188" y="270" width="48" height="30" rx="5"/><rect x="260" y="270" width="48" height="30" rx="5"/>
    </g>
    <g fill="#ffd56a" opacity=".6"><rect x="122" y="92" width="12" height="8" rx="2"/><rect x="266" y="138" width="12" height="8" rx="2"/><rect x="194" y="184" width="12" height="8" rx="2"/><rect x="122" y="276" width="12" height="8" rx="2"/></g>
    <path d="M54 326 H370 V408 H54Z" fill="url(#lobby)" stroke="#6f8da8" stroke-width="5"/>
    <rect x="172" y="338" width="80" height="70" rx="8" fill="url(#glass)" stroke="#d8f3ff" stroke-width="5"/>
    <path d="M212 338 V408" stroke="#d8f3ff" stroke-width="4"/>
    <rect x="72" y="350" width="72" height="18" rx="9" fill="#d5e5ef" opacity=".28"/><rect x="280" y="350" width="72" height="18" rx="9" fill="#d5e5ef" opacity=".28"/>
    <path d="M18 408 H406 L438 438 H0Z" fill="#c9d3db"/>
    <g fill="#285744"><circle cx="44" cy="394" r="32"/><circle cx="380" cy="394" r="32"/></g>
    <g fill="#6cb783"><circle cx="38" cy="382" r="21"/><circle cx="386" cy="382" r="21"/></g>
  </g>
  <g transform="translate(536 388)">
    <rect width="166" height="50" rx="25" fill="#0d1722" fill-opacity=".8" stroke="#7ee8ff" stroke-opacity=".3"/>
    <text x="83" y="32" text-anchor="middle" font-family="system-ui, sans-serif" font-size="18" font-weight="800" fill="#ecfbff">TOUR À CONDOS</text>
  </g>
</svg>
