<svg xmlns="http://www.w3.org/2000/svg" viewBox="0 0 600 400" role="img" aria-label="Triplex illustré">
  <defs>
    <linearGradient id="sky" x1="0" y1="0" x2="0" y2="1"><stop stop-color="#90dcff"/><stop offset="1" stop-color="#e8f8ff"/></linearGradient>
    <linearGradient id="stone" x1="0" y1="0" x2="1" y2="1"><stop stop-color="#d7c6ad"/><stop offset="1" stop-color="#aa8e75"/></linearGradient>
    <linearGradient id="roof" x1="0" y1="0" x2="1" y2="1"><stop stop-color="#55708a"/><stop offset="1" stop-color="#283a50"/></linearGradient>
    <filter id="s"><feDropShadow dx="0" dy="12" stdDeviation="10" flood-color="#17324a" flood-opacity=".28"/></filter>
  </defs>
  <rect width="600" height="400" fill="url(#sky)"/>
  <path d="M0 300q130-30 250-8t350-12v120H0Z" fill="#55ae71"/>
  <g filter="url(#s)">
    <rect x="126" y="102" width="350" height="244" rx="12" fill="url(#stone)" stroke="#755f50" stroke-width="5"/>
    <path d="M102 115 301 48 501 115Z" fill="url(#roof)" stroke="#223245" stroke-width="7" stroke-linejoin="round"/>
    <path d="M142 190h318M142 266h318" stroke="#7d6756" stroke-width="5" opacity=".7"/>
    <g fill="#72cef0" stroke="#345b6d" stroke-width="4">
      <rect x="154" y="128" width="58" height="44" rx="6"/><rect x="271" y="128" width="58" height="44" rx="6"/><rect x="388" y="128" width="58" height="44" rx="6"/>
      <rect x="154" y="204" width="58" height="44" rx="6"/><rect x="388" y="204" width="58" height="44" rx="6"/>
      <rect x="154" y="280" width="58" height="44" rx="6"/><rect x="388" y="280" width="58" height="44" rx="6"/>
    </g>
    <g stroke="#effcff" stroke-width="3"><path d="M183 130v40M156 149h54M300 130v40M273 149h54M417 130v40M390 149h54M183 206v40M156 225h54M417 206v40M390 225h54M183 282v40M156 301h54M417 282v40M390 301h54"/></g>
    <rect x="266" y="272" width="69" height="74" rx="6" fill="#3e626d" stroke="#25414a" stroke-width="5"/>
    <circle cx="321" cy="313" r="4" fill="#ffdb6d"/>
    <g fill="#374b58"><rect x="233" y="194" width="135" height="9" rx="4"/><rect x="233" y="252" width="135" height="9" rx="4"/></g>
    <g stroke="#344b57" stroke-width="5"><path d="M246 203v40M354 203v40M246 261v42M354 261v42"/></g>
  </g>
  <path d="M268 346 244 400h123l-31-54Z" fill="#d7c9ad"/>
  <g fill="#2c754c"><ellipse cx="78" cy="326" rx="48" ry="55"/><ellipse cx="530" cy="326" rx="45" ry="57"/></g>
  <g fill="#6ac982"><circle cx="63" cy="292" r="31"/><circle cx="98" cy="298" r="30"/><circle cx="514" cy="294" r="30"/><circle cx="547" cy="300" r="29"/></g>
</svg>
